<svg xmlns="http://www.w3.org/2000/svg" xmlns:xlink="http://www.w3.org/1999/xlink" preserveAspectRatio="xMidYMid" width="2050" height="601" viewBox="0 0 2050 601">
  <defs>
    <style>

      .cls-3 {
        fill: #ffffff;
      }
    </style>
  </defs>
  <g id="logo">
    <path d="M2033.162,598.696 C2032.640,595.742 2032.204,592.526 2031.857,589.045 C2031.507,585.569 2031.336,582.178 2031.336,578.872 C2031.336,578.872 2030.814,578.872 2030.814,578.872 C2025.247,587.048 2018.946,592.917 2011.903,596.479 C2004.860,600.041 1996.383,601.827 1986.471,601.827 C1981.776,601.827 1976.950,601.170 1971.994,599.866 C1967.038,598.558 1962.514,596.422 1958.430,593.455 C1954.342,590.488 1950.951,586.649 1948.257,581.937 C1945.559,577.226 1944.214,571.471 1944.214,564.665 C1944.214,555.242 1946.603,547.783 1951.387,542.289 C1956.168,536.795 1962.559,532.695 1970.559,529.989 C1978.556,527.283 1987.730,525.538 1998.078,524.752 C2008.422,523.969 2019.162,523.574 2030.292,523.574 C2030.292,523.574 2030.292,519.690 2030.292,519.690 C2030.292,509.162 2027.509,501.308 2021.945,496.128 C2016.378,490.952 2008.292,488.360 1997.687,488.360 C1990.383,488.360 1983.602,489.664 1977.341,492.273 C1971.081,494.881 1965.775,498.362 1961.430,502.706 C1961.430,502.706 1951.518,490.969 1951.518,490.969 C1956.559,485.927 1963.211,481.753 1971.472,478.448 C1979.730,475.147 1989.079,473.492 1999.513,473.492 C2006.120,473.492 2012.294,474.405 2018.033,476.231 C2023.771,478.057 2028.813,480.796 2033.162,484.447 C2037.506,488.099 2040.897,492.709 2043.334,498.272 C2045.768,503.839 2046.986,510.361 2046.986,517.835 C2046.986,517.835 2046.986,571.308 2046.986,571.308 C2046.986,576.003 2047.157,580.874 2047.508,585.915 C2047.854,590.961 2048.376,595.220 2049.073,598.696 C2049.073,598.696 2033.162,598.696 2033.162,598.696 ZM2030.292,537.659 C2030.292,537.659 2025.075,537.659 2025.075,537.659 C2017.772,537.659 2010.423,537.965 2003.034,538.572 C1995.641,539.184 1988.949,540.398 1982.949,542.224 C1976.950,544.050 1972.035,546.703 1968.212,550.180 C1964.385,553.660 1962.473,558.266 1962.473,564.004 C1962.473,568.353 1963.297,572.005 1964.951,574.960 C1966.602,577.919 1968.819,580.307 1971.603,582.133 C1974.382,583.959 1977.472,585.263 1980.863,586.046 C1984.254,586.828 1987.685,587.219 1991.166,587.219 C1997.426,587.219 2002.989,586.135 2007.860,583.959 C2012.726,581.787 2016.814,578.832 2020.119,575.090 C2023.421,571.353 2025.944,567.049 2027.684,562.179 C2029.420,557.312 2030.292,552.181 2030.292,546.789 C2030.292,546.789 2030.292,537.659 2030.292,537.659 ZM1892.571,573.916 C1893.439,576.875 1894.699,579.178 1896.353,580.829 C1898.004,582.483 1899.960,583.612 1902.222,584.220 C1904.480,584.831 1906.917,585.133 1909.526,585.133 C1911.959,585.133 1914.523,584.786 1917.221,584.089 C1919.915,583.396 1922.478,582.439 1924.916,581.220 C1924.916,581.220 1925.698,596.610 1925.698,596.610 C1922.568,597.828 1919.307,598.737 1915.917,599.349 C1912.526,599.956 1908.829,600.262 1904.831,600.262 C1901.525,600.262 1898.049,599.825 1894.397,598.957 C1890.745,598.089 1887.354,596.439 1884.224,594.001 C1881.094,591.568 1878.526,588.263 1876.529,584.089 C1874.528,579.916 1873.530,574.438 1873.530,567.656 C1873.530,567.656 1873.530,491.490 1873.530,491.490 C1873.530,491.490 1848.228,491.490 1848.228,491.490 C1848.228,491.490 1848.228,476.622 1848.228,476.622 C1848.228,476.622 1873.530,476.622 1873.530,476.622 C1873.530,476.622 1873.530,442.191 1873.530,442.191 C1873.530,442.191 1891.267,442.191 1891.267,442.191 C1891.267,442.191 1891.267,476.622 1891.267,476.622 C1891.267,476.622 1925.698,476.622 1925.698,476.622 C1925.698,476.622 1925.698,491.490 1925.698,491.490 C1925.698,491.490 1891.267,491.490 1891.267,491.490 C1891.267,491.490 1891.267,562.700 1891.267,562.700 C1891.267,567.224 1891.699,570.962 1892.571,573.916 ZM1731.112,542.354 C1731.283,548.444 1732.502,554.182 1734.764,559.570 C1737.022,564.962 1740.152,569.657 1744.154,573.656 C1748.152,577.658 1752.847,580.829 1758.240,583.176 C1763.628,585.524 1769.456,586.698 1775.716,586.698 C1784.931,586.698 1792.887,584.570 1799.583,580.307 C1806.275,576.048 1811.362,571.137 1814.842,565.569 C1814.842,565.569 1828.145,576.003 1828.145,576.003 C1820.842,585.222 1812.796,591.829 1804.017,595.827 C1795.234,599.825 1785.799,601.827 1775.716,601.827 C1766.672,601.827 1758.280,600.217 1750.545,597.001 C1742.805,593.785 1736.154,589.306 1730.590,583.568 C1725.023,577.829 1720.633,571.047 1717.418,563.222 C1714.198,555.397 1712.592,546.878 1712.592,537.659 C1712.592,528.444 1714.157,519.922 1717.287,512.097 C1720.417,504.271 1724.762,497.490 1730.329,491.751 C1735.893,486.013 1742.414,481.537 1749.893,478.318 C1757.367,475.102 1765.453,473.492 1774.151,473.492 C1783.712,473.492 1792.149,475.102 1799.453,478.318 C1806.756,481.537 1812.841,485.882 1817.712,491.360 C1822.578,496.837 1826.275,503.228 1828.797,510.532 C1831.316,517.835 1832.580,525.661 1832.580,534.008 C1832.580,535.226 1832.580,536.530 1832.580,537.920 C1832.580,539.314 1832.490,540.789 1832.319,542.354 C1832.319,542.354 1731.112,542.354 1731.112,542.354 ZM1803.496,499.707 C1796.624,492.142 1786.843,488.360 1774.151,488.360 C1768.237,488.360 1762.759,489.448 1757.718,491.621 C1752.672,493.797 1748.238,496.752 1744.415,500.489 C1740.588,504.231 1737.543,508.490 1735.285,513.271 C1733.023,518.055 1731.719,523.052 1731.373,528.269 C1731.373,528.269 1814.582,528.269 1814.582,528.269 C1814.060,516.792 1810.363,507.271 1803.496,499.707 ZM1666.033,583.307 C1660.556,589.045 1653.945,593.569 1646.209,596.871 C1638.470,600.172 1629.817,601.827 1620.256,601.827 C1611.387,601.827 1602.779,599.825 1594.432,595.827 C1586.085,591.829 1579.303,585.915 1574.086,578.090 C1574.086,578.090 1573.565,578.090 1573.565,578.090 C1573.565,578.090 1573.565,598.696 1573.565,598.696 C1573.565,598.696 1555.827,598.696 1555.827,598.696 C1555.827,598.696 1555.827,401.500 1555.827,401.500 C1555.827,401.500 1573.565,401.500 1573.565,401.500 C1573.565,401.500 1573.565,497.750 1573.565,497.750 C1573.565,497.750 1574.086,497.750 1574.086,497.750 C1579.303,489.754 1586.085,483.710 1594.432,479.622 C1602.779,475.538 1611.387,473.492 1620.256,473.492 C1629.817,473.492 1638.470,475.147 1646.209,478.448 C1653.945,481.753 1660.556,486.273 1666.033,492.012 C1671.511,497.750 1675.770,504.532 1678.815,512.358 C1681.855,520.183 1683.379,528.620 1683.379,537.659 C1683.379,546.703 1681.855,555.136 1678.815,562.961 C1675.770,570.786 1671.511,577.568 1666.033,583.307 ZM1661.469,518.487 C1659.382,512.488 1656.382,507.271 1652.470,502.837 C1648.557,498.403 1643.731,494.881 1637.993,492.273 C1632.254,489.664 1625.733,488.360 1618.430,488.360 C1611.648,488.360 1605.388,489.624 1599.649,492.142 C1593.910,494.665 1588.954,498.142 1584.781,502.576 C1580.608,507.010 1577.347,512.227 1574.999,518.227 C1572.652,524.226 1571.478,530.706 1571.478,537.659 C1571.478,544.616 1572.652,551.093 1574.999,557.092 C1577.347,563.091 1580.608,568.268 1584.781,572.612 C1588.954,576.961 1593.910,580.397 1599.649,582.916 C1605.388,585.438 1611.648,586.698 1618.430,586.698 C1625.733,586.698 1632.254,585.438 1637.993,582.916 C1643.731,580.397 1648.557,576.916 1652.470,572.482 C1656.382,568.047 1659.382,562.831 1661.469,556.831 C1663.555,550.832 1664.599,544.441 1664.599,537.659 C1664.599,530.877 1663.555,524.487 1661.469,518.487 Z" id="path-1" class="cls-3" fill-rule="evenodd"/>
    <path d="M1989.248,161.692 C1979.200,155.978 1967.951,153.121 1955.485,153.121 C1949.941,153.121 1944.398,153.730 1938.863,154.939 C1933.319,156.157 1928.385,158.056 1924.059,160.653 C1919.725,163.250 1916.267,166.545 1913.670,170.522 C1911.073,174.507 1909.774,179.442 1909.774,185.326 C1909.774,195.715 1914.449,203.425 1923.799,208.441 C1933.149,213.465 1947.174,218.051 1965.873,222.206 C1977.642,224.982 1988.550,228.269 1998.598,232.076 C2008.637,235.890 2017.379,240.646 2024.829,246.360 C2032.272,252.074 2038.075,258.916 2042.230,266.878 C2046.386,274.848 2048.464,284.198 2048.464,294.927 C2048.464,309.472 2045.688,321.768 2040.153,331.807 C2034.609,341.855 2027.248,350.077 2018.077,356.481 C2008.897,362.892 1998.419,367.478 1986.651,370.246 C1974.874,373.013 1962.757,374.401 1950.290,374.401 C1931.590,374.401 1913.321,370.765 1895.490,363.493 C1877.650,356.221 1862.846,345.142 1851.078,330.249 C1851.078,330.249 1885.880,300.641 1885.880,300.641 C1892.454,310.340 1901.544,318.481 1913.150,325.055 C1924.749,331.637 1937.475,334.924 1951.329,334.924 C1957.562,334.924 1963.536,334.323 1969.250,333.106 C1974.963,331.897 1980.158,329.908 1984.833,327.132 C1989.508,324.365 1993.225,320.729 1996.001,316.224 C1998.768,311.728 2000.156,306.014 2000.156,299.083 C2000.156,287.655 1994.702,279.174 1983.794,273.630 C1972.886,268.095 1956.864,262.901 1935.746,258.047 C1927.435,255.970 1919.035,253.462 1910.553,250.516 C1902.064,247.577 1894.361,243.503 1887.438,238.309 C1880.507,233.114 1874.883,226.621 1870.557,218.830 C1866.223,211.038 1864.064,201.429 1864.064,190.001 C1864.064,176.845 1866.742,165.507 1872.115,155.978 C1877.480,146.458 1884.492,138.666 1893.152,132.604 C1901.804,126.549 1911.673,122.044 1922.760,119.098 C1933.839,116.160 1945.266,114.683 1957.043,114.683 C1974.704,114.683 1991.756,118.149 2008.207,125.072 C2024.651,132.003 2037.377,142.043 2046.386,155.199 C2046.386,155.199 2012.622,183.768 2012.622,183.768 C2007.079,174.767 1999.288,167.406 1989.248,161.692 ZM1773.949,337.781 C1762.002,349.387 1747.888,358.388 1731.615,364.792 C1715.334,371.195 1697.852,374.401 1679.152,374.401 C1660.452,374.401 1642.962,371.195 1626.689,364.792 C1610.408,358.388 1596.383,349.387 1584.615,337.781 C1572.838,326.183 1563.577,312.418 1556.825,296.486 C1550.072,280.562 1546.696,263.071 1546.696,244.023 C1546.696,224.982 1550.072,207.581 1556.825,191.819 C1563.577,176.066 1572.838,162.471 1584.615,151.044 C1596.383,139.616 1610.408,130.704 1626.689,124.292 C1642.962,117.889 1660.452,114.683 1679.152,114.683 C1697.852,114.683 1715.334,117.889 1731.615,124.292 C1747.888,130.704 1762.002,139.616 1773.949,151.044 C1785.896,162.471 1795.246,176.066 1801.999,191.819 C1808.751,207.581 1812.128,224.982 1812.128,244.023 C1812.128,263.071 1808.751,280.562 1801.999,296.486 C1795.246,312.418 1785.896,326.183 1773.949,337.781 ZM1755.753,210.616 C1752.100,199.919 1746.809,190.513 1739.861,182.396 C1732.914,174.280 1724.310,167.812 1714.068,162.974 C1703.817,158.137 1692.089,155.718 1678.892,155.718 C1665.687,155.718 1653.959,158.137 1643.717,162.974 C1633.466,167.812 1624.871,174.280 1617.923,182.396 C1610.976,190.513 1605.676,199.919 1602.032,210.616 C1598.380,221.322 1596.562,232.546 1596.562,244.282 C1596.562,256.026 1598.380,267.251 1602.032,277.948 C1605.676,288.654 1610.976,298.149 1617.923,306.436 C1624.871,314.723 1633.466,321.281 1643.717,326.118 C1653.959,330.955 1665.687,333.366 1678.892,333.366 C1692.089,333.366 1703.817,330.955 1714.068,326.118 C1724.310,321.281 1732.914,314.723 1739.861,306.436 C1746.809,298.149 1752.100,288.654 1755.753,277.948 C1759.397,267.251 1761.223,256.026 1761.223,244.282 C1761.223,232.546 1759.397,221.322 1755.753,210.616 ZM1460.557,336.482 C1449.844,348.259 1436.890,357.519 1421.697,364.272 C1406.495,371.025 1389.394,374.401 1370.402,374.401 C1352.782,374.401 1336.201,370.587 1320.658,362.974 C1305.107,355.361 1292.844,344.623 1283.867,330.768 C1283.867,330.768 1282.309,330.768 1282.309,330.768 C1282.309,330.768 1282.309,492.313 1282.309,492.313 C1282.309,492.313 1233.482,492.313 1233.482,492.313 C1233.482,492.313 1233.482,121.436 1233.482,121.436 C1233.482,121.436 1281.270,121.436 1281.270,121.436 C1281.270,121.436 1281.270,159.874 1281.270,159.874 C1281.270,159.874 1282.829,159.874 1282.829,159.874 C1290.766,146.718 1302.429,135.899 1317.801,127.409 C1333.173,118.928 1351.045,114.683 1371.433,114.683 C1389.743,114.683 1406.406,117.978 1421.437,124.552 C1436.460,131.134 1449.413,140.314 1460.297,152.082 C1471.173,163.859 1479.549,177.624 1485.425,193.378 C1491.301,209.139 1494.239,226.021 1494.239,244.023 C1494.239,262.032 1491.301,279.003 1485.425,294.927 C1479.549,310.859 1471.262,324.714 1460.557,336.482 ZM1439.179,210.779 C1435.713,200.049 1430.519,190.521 1423.596,182.210 C1416.665,173.899 1408.094,167.325 1397.884,162.471 C1387.665,157.626 1375.808,155.199 1362.302,155.199 C1349.836,155.199 1338.489,157.626 1328.279,162.471 C1318.061,167.325 1309.320,173.899 1302.048,182.210 C1294.776,190.521 1289.143,200.049 1285.166,210.779 C1281.181,221.516 1279.192,232.774 1279.192,244.542 C1279.192,256.319 1281.181,267.576 1285.166,278.305 C1289.143,289.043 1294.776,298.482 1302.048,306.615 C1309.320,314.755 1318.061,321.248 1328.279,326.094 C1338.489,330.947 1349.836,333.366 1362.302,333.366 C1375.808,333.366 1387.665,330.858 1397.884,325.834 C1408.094,320.818 1416.665,314.147 1423.596,305.836 C1430.519,297.525 1435.713,288.004 1439.179,277.267 C1442.636,266.537 1444.373,255.450 1444.373,244.023 C1444.373,232.595 1442.636,221.516 1439.179,210.779 ZM1127.784,337.781 C1115.837,349.387 1101.723,358.388 1085.450,364.792 C1069.169,371.195 1051.687,374.401 1032.987,374.401 C1014.287,374.401 996.797,371.195 980.524,364.792 C964.243,358.388 950.218,349.387 938.450,337.781 C926.673,326.183 917.413,312.418 910.660,296.486 C903.907,280.562 900.531,263.071 900.531,244.023 C900.531,224.982 903.907,207.581 910.660,191.819 C917.413,176.066 926.673,162.471 938.450,151.044 C950.218,139.616 964.243,130.704 980.524,124.292 C996.797,117.889 1014.287,114.683 1032.987,114.683 C1051.687,114.683 1069.169,117.889 1085.450,124.292 C1101.723,130.704 1115.837,139.616 1127.784,151.044 C1139.731,162.471 1149.081,176.066 1155.834,191.819 C1162.587,207.581 1165.963,224.982 1165.963,244.023 C1165.963,263.071 1162.587,280.562 1155.834,296.486 C1149.081,312.418 1139.731,326.183 1127.784,337.781 ZM1109.588,210.616 C1105.936,199.919 1100.644,190.513 1093.696,182.396 C1086.749,174.280 1078.146,167.812 1067.903,162.974 C1057.652,158.137 1045.924,155.718 1032.727,155.718 C1019.522,155.718 1007.795,158.137 997.552,162.974 C987.301,167.812 978.706,174.280 971.759,182.396 C964.811,190.513 959.511,199.919 955.867,210.616 C952.215,221.322 950.397,232.546 950.397,244.282 C950.397,256.026 952.215,267.251 955.867,277.948 C959.511,288.654 964.811,298.149 971.759,306.436 C978.706,314.723 987.301,321.281 997.552,326.118 C1007.795,330.955 1019.522,333.366 1032.727,333.366 C1045.924,333.366 1057.652,330.955 1067.903,326.118 C1078.146,321.281 1086.749,314.723 1093.696,306.436 C1100.644,298.149 1105.936,288.654 1109.588,277.948 C1113.232,267.251 1115.058,256.026 1115.058,244.282 C1115.058,232.546 1113.232,221.322 1109.588,210.616 ZM855.854,159.354 C844.078,159.354 833.860,161.521 825.208,165.847 C816.548,170.181 809.365,175.976 803.651,183.249 C797.937,190.521 793.693,198.921 790.925,208.441 C788.149,217.970 786.769,227.920 786.769,238.309 C786.769,238.309 786.769,367.648 786.769,367.648 C786.769,367.648 737.942,367.648 737.942,367.648 C737.942,367.648 737.942,174.418 737.942,174.418 C737.942,167.844 737.764,159.354 737.423,148.966 C737.074,138.577 736.555,129.406 735.865,121.436 C735.865,121.436 782.095,121.436 782.095,121.436 C782.784,127.669 783.304,134.860 783.653,142.992 C783.994,151.133 784.172,157.796 784.172,162.991 C784.172,162.991 785.731,162.991 785.731,162.991 C792.654,148.446 802.783,136.759 816.118,127.929 C829.444,119.098 844.427,114.683 861.049,114.683 C868.662,114.683 875.074,115.381 880.268,116.761 C880.268,116.761 878.190,161.952 878.190,161.952 C871.259,160.223 863.816,159.354 855.854,159.354 ZM635.701,336.482 C624.988,348.259 612.034,357.519 596.841,364.272 C581.639,371.025 564.538,374.401 545.546,374.401 C527.926,374.401 511.345,370.587 495.802,362.974 C480.252,355.361 467.988,344.623 459.012,330.768 C459.012,330.768 457.453,330.768 457.453,330.768 C457.453,330.768 457.453,492.313 457.453,492.313 C457.453,492.313 408.626,492.313 408.626,492.313 C408.626,492.313 408.626,121.436 408.626,121.436 C408.626,121.436 456.414,121.436 456.414,121.436 C456.414,121.436 456.414,159.874 456.414,159.874 C456.414,159.874 457.973,159.874 457.973,159.874 C465.910,146.718 477.573,135.899 492.945,127.409 C508.317,118.928 526.189,114.683 546.577,114.683 C564.887,114.683 581.550,117.978 596.581,124.552 C611.604,131.134 624.558,140.314 635.441,152.082 C646.317,163.859 654.693,177.624 660.569,193.378 C666.445,209.139 669.383,226.021 669.383,244.023 C669.383,262.032 666.445,279.003 660.569,294.927 C654.693,310.859 646.406,324.714 635.701,336.482 ZM614.323,210.779 C610.857,200.049 605.663,190.521 598.740,182.210 C591.809,173.899 583.238,167.325 573.028,162.471 C562.810,157.626 550.952,155.199 537.446,155.199 C524.980,155.199 513.634,157.626 503.423,162.471 C493.205,167.325 484.464,173.899 477.192,182.210 C469.920,190.521 464.287,200.049 460.310,210.779 C456.325,221.516 454.337,232.774 454.337,244.542 C454.337,256.319 456.325,267.576 460.310,278.305 C464.287,289.043 469.920,298.482 477.192,306.615 C484.464,314.755 493.205,321.248 503.423,326.094 C513.634,330.947 524.980,333.366 537.446,333.366 C550.952,333.366 562.810,330.858 573.028,325.834 C583.238,320.818 591.809,314.147 598.740,305.836 C605.663,297.525 610.857,288.004 614.323,277.267 C617.781,266.537 619.517,255.450 619.517,244.023 C619.517,232.595 617.781,221.516 614.323,210.779 ZM268.379,277.267 C268.379,277.267 93.849,277.267 93.849,277.267 C93.849,277.267 56.969,367.648 56.969,367.648 C56.969,367.648 -0.169,367.648 -0.169,367.648 C-0.169,367.648 159.297,-0.113 159.297,-0.113 C159.297,-0.113 206.047,-0.113 206.047,-0.113 C206.047,-0.113 363.955,367.648 363.955,367.648 C363.955,367.648 305.779,367.648 305.779,367.648 C305.779,367.648 268.379,277.267 268.379,277.267 ZM181.114,59.623 C181.114,59.623 112.029,232.076 112.029,232.076 C112.029,232.076 249.679,232.076 249.679,232.076 C249.679,232.076 181.114,59.623 181.114,59.623 Z" id="path-2" class="cls-3" fill-rule="evenodd"/>
  </g>
</svg>
